<svg xmlns="http://www.w3.org/2000/svg" viewBox="0 0 24 24" id="setting"><path d="m3 16.6 1.2 1.8c.6 1 1.8 1.4 2.9 1l1.1-.4.3 1.1c.3 1.1 1.3 1.9 2.4 1.9h2.2c1.1 0 2.1-.8 2.4-1.9l.3-1.1 1 .4c1.1.4 2.3 0 2.9-1l1.2-1.8c.6-1 .5-2.2-.2-3.1L19.3 12l1.4-1.5c.8-.8.9-2.1.3-3.1l-1.2-1.8c-.6-1-1.8-1.4-2.9-1l-1.1.4-.3-1.1C15.2 2.8 14.2 2 13.1 2h-2.2c-1.1 0-2.1.8-2.4 1.9l-.3 1-1-.4c-1.1-.4-2.3 0-2.9 1L3.1 7.3c-.6 1-.5 2.2.2 3.1L4.7 12l-1.4 1.5c-.8.8-.9 2.1-.3 3.1zm1.8-1.7 2.1-2.2c.4-.4.4-1 0-1.4l-2-2.2c-.2-.2-.2-.4 0-.6l1.2-1.8c.1-.2.4-.3.6-.2l2.1.7c.3.1.6.1.8-.1 0-.1.2-.3.3-.6l.5-2.1c.1-.2.3-.4.5-.4h2.2c.2 0 .4.2.5.4l.5 2.2c.1.3.2.5.5.6.2.1.5.2.8.1l2.1-.7c.2-.1.5 0 .6.2l1.2 1.8c.1.2.1.4-.1.6l-2.1 2.2c-.4.4-.4 1 0 1.4l2 2.2c.2.2.2.4 0 .6l-1.2 1.8c-.1.2-.4.3-.6.2l-2.1-.7c-.3-.1-.6-.1-.8.1-.3.1-.4.4-.5.6l-.5 2.1c-.1.2-.3.4-.5.4h-2.2c-.2 0-.4-.2-.5-.4l-.5-2.2c-.1-.3-.2-.5-.5-.6-.1-.1-.3-.1-.5-.1-.1 0-.2 0-.3.1l-2.1.7c-.2.1-.5 0-.6-.2l-1.2-1.8c.1-.3.1-.6.3-.7z"></path><path d="M12 16c2.2 0 4-1.8 4-4s-1.8-4-4-4-4 1.8-4 4 1.8 4 4 4zm0-6c1.1 0 2 .9 2 2s-.9 2-2 2-2-.9-2-2 .9-2 2-2z"></path></svg>